<svg aria-hidden="true" style="position: absolute; width: 0; height: 0; overflow: hidden;" version="1.1" xmlns="http://www.w3.org/2000/svg" xmlns:xlink="http://www.w3.org/1999/xlink">
<defs>
<symbol id="icon-arrow_downward_24px" viewBox="0 0 21 32">
<path d="M21.333 21.333l-1.88-1.88-7.453 7.44v-26.893h-2.667v26.893l-7.44-7.453-1.893 1.893 10.667 10.667 10.667-10.667z"></path>
</symbol>
<symbol id="icon-arrow_downward_24px_2" viewBox="0 0 48 32">
<path d="M32 0l-2.82 2.82 11.16 11.18h-40.34v4h40.34l-11.18 11.16 2.84 2.84 16-16-16-16z"></path>
</symbol>
<symbol id="icon-cart" viewBox="0 0 32 32">
<path d="M16 2.667c-7.36 0-13.333 5.973-13.333 13.333s5.973 13.333 13.333 13.333 13.333-5.973 13.333-13.333-5.973-13.333-13.333-13.333zM9.427 24.373c0.573-1.2 4.067-2.373 6.573-2.373s6.013 1.173 6.573 2.373c-1.781 1.429-4.069 2.293-6.558 2.293-0.005 0-0.011 0-0.016 0h0.001c-2.48 0-4.76-0.853-6.573-2.293zM24.48 22.44c-1.907-2.32-6.533-3.107-8.48-3.107s-6.573 0.787-8.48 3.107c-1.363-1.764-2.185-4.006-2.187-6.44v-0c0-5.88 4.787-10.667 10.667-10.667s10.667 4.787 10.667 10.667c0 2.427-0.827 4.653-2.187 6.44zM16 8c-2.587 0-4.667 2.080-4.667 4.667s2.080 4.667 4.667 4.667 4.667-2.080 4.667-4.667-2.080-4.667-4.667-4.667zM16 14.667c-1.107 0-2-0.893-2-2s0.893-2 2-2 2 0.893 2 2-0.893 2-2 2z"></path>
</symbol>
<symbol id="icon-instagram" viewBox="0 0 32 32">
<path d="M10.4 2.667h11.2c4.271 0 7.733 3.462 7.733 7.733v0 11.2c0 4.271-3.462 7.733-7.733 7.733v0h-11.2c-4.271 0-7.733-3.462-7.733-7.733v0-11.2c0-4.271 3.462-7.733 7.733-7.733v0zM10.133 5.333c-2.651 0-4.8 2.149-4.8 4.8v0 11.733c0 2.651 2.149 4.8 4.8 4.8v0h11.733c2.651 0 4.8-2.149 4.8-4.8v0-11.733c0-2.651-2.149-4.8-4.8-4.8v0h-11.733zM23 7.333c0.92 0 1.667 0.746 1.667 1.667s-0.746 1.667-1.667 1.667v0c-0.92 0-1.667-0.746-1.667-1.667s0.746-1.667 1.667-1.667v0zM16 9.333c3.682 0 6.667 2.985 6.667 6.667s-2.985 6.667-6.667 6.667v0c-3.682 0-6.667-2.985-6.667-6.667s2.985-6.667 6.667-6.667v0zM16 12c-2.209 0-4 1.791-4 4s1.791 4 4 4v0c2.209 0 4-1.791 4-4s-1.791-4-4-4v0z"></path>
</symbol>
<symbol id="icon-twitter" viewBox="0 0 32 32">
<path d="M29.947 8.016c-0.957 0.436-2.068 0.754-3.233 0.896l-0.055 0.005c1.183-0.717 2.073-1.817 2.504-3.125l0.012-0.041c-1.046 0.631-2.263 1.113-3.56 1.376l-0.073 0.012c-1.047-1.118-2.532-1.814-4.18-1.814-3.161 0-5.723 2.562-5.723 5.723 0 0.465 0.055 0.917 0.16 1.349l-0.008-0.039c-4.767-0.245-8.96-2.51-11.772-5.948l-0.023-0.029c-0.487 0.822-0.775 1.811-0.775 2.868 0 0.003 0 0.006 0 0.009v-0c0 0.001 0 0.002 0 0.004 0 1.976 1.002 3.719 2.526 4.746l0.020 0.013c-0.957-0.031-1.846-0.292-2.622-0.731l0.028 0.015v0.072c0 2.773 1.973 5.085 4.591 5.612-0.451 0.127-0.968 0.201-1.503 0.201-0.383 0-0.757-0.038-1.119-0.109l0.036 0.006c0.753 2.292 2.853 3.926 5.341 3.973l0.006 0c-1.932 1.528-4.403 2.451-7.090 2.451-0.006 0-0.012 0-0.018 0h0.001c-0.463 0-0.917-0.027-1.365-0.080 2.475 1.612 5.503 2.571 8.756 2.571 0.006 0 0.011 0 0.017 0h-0.001c10.524 0 16.28-8.72 16.28-16.28 0-0.249-0.005-0.496-0.016-0.741 1.124-0.819 2.071-1.801 2.828-2.921l0.026-0.041z"></path>
</symbol>
</defs>
</svg>
